<!DOCTYPE svg PUBLIC "-//W3C//DTD SVG 20010904//EN" "http://www.w3.org/TR/2001/REC-SVG-20010904/DTD/svg10.dtd">
<svg version="1.0" xmlns="http://www.w3.org/2000/svg" width="1124px" height="222px" viewBox="0 0 11240 2220" preserveAspectRatio="xMidYMid meet">
<g id="layer101" fill="#010100" stroke="none">
<path d="M10422 2053 c-11 -16 -29 -47 -41 -71 -16 -32 -27 -42 -38 -38 -29 12 -52 -5 -91 -67 -62 -98 -93 -166 -90 -195 3 -24 11 -29 78 -47 102 -29 134 -48 155 -91 16 -33 16 -39 1 -78 -9 -22 -41 -70 -72 -105 -80 -92 -101 -127 -120 -200 -39 -156 31 -293 196 -380 36 -19 91 -54 124 -78 63 -47 202 -97 252 -91 26 3 32 13 82 133 30 72 55 146 56 165 l1 35 -50 3 c-69 3 -95 10 -95 25 0 8 -15 20 -32 28 -63 27 -49 82 63 246 96 141 120 196 126 292 13 182 -73 345 -238 455 -58 38 -183 86 -224 86 -14 0 -31 -11 -43 -27z"/>
<path d="M9414 2046 c-106 -24 -182 -73 -214 -137 -11 -21 -25 -39 -30 -39 -18 0 -81 -64 -101 -102 -27 -54 -42 -184 -34 -305 4 -56 1 -235 -5 -397 -14 -334 -16 -326 56 -326 l43 0 3 -42 3 -43 105 -3 c151 -5 248 5 260 27 5 11 5 160 -1 392 -6 206 -7 416 -4 467 l7 92 40 0 c57 0 103 -25 124 -68 15 -32 16 -68 9 -409 -5 -289 -4 -377 5 -388 8 -10 31 -15 66 -15 l53 0 3 -42 c3 -43 3 -43 48 -50 25 -3 105 -7 178 -7 107 -1 134 2 138 14 3 8 1 252 -4 542 -12 587 -16 627 -76 706 -41 53 -117 100 -204 122 -90 24 -380 31 -468 11z"/>
<path d="M2169 2045 c-3 -2 -106 -5 -230 -5 l-224 -1 -50 -28 c-28 -16 -102 -64 -165 -108 -244 -169 -428 -273 -619 -349 -173 -69 -256 -119 -355 -215 -123 -117 -184 -217 -235 -380 -14 -44 -15 -139 -1 -139 5 0 24 13 42 28 91 78 190 131 316 167 110 32 148 30 82 -4 -127 -65 -329 -250 -420 -385 -29 -44 -75 -126 -102 -182 -46 -99 -103 -273 -96 -293 1 -6 44 21 93 60 178 140 384 266 551 337 133 57 324 112 382 112 27 -1 27 -1 -13 -35 -34 -29 -90 -58 -180 -91 -57 -21 225 -33 300 -13 22 6 83 27 135 47 87 33 106 36 225 40 109 3 157 0 300 -24 316 -52 656 -32 913 52 23 8 73 14 111 14 72 0 99 14 87 45 -6 16 41 46 79 50 34 4 35 5 35 18 0 6 31 32 67 57 155 104 255 235 314 410 30 89 32 104 32 232 l0 137 26 3 c25 3 26 6 32 83 3 44 6 74 7 66 3 -21 343 -1083 353 -1103 8 -14 29 -16 164 -16 148 0 157 1 170 22 7 11 17 33 20 48 4 16 11 25 16 22 31 -19 101 138 344 781 134 352 136 359 119 384 -9 13 -26 21 -43 21 -28 0 -28 1 -18 38 21 79 -5 92 -177 92 -197 0 -196 1 -225 -124 -20 -85 -16 -83 -198 -85 -98 -1 -123 2 -123 13 0 22 -40 66 -61 66 -14 0 -22 11 -30 43 -20 81 -22 82 -182 85 -159 3 -190 -5 -195 -50 -2 -15 2 -36 8 -48 10 -18 8 -20 -23 -20 -34 0 -35 1 -46 61 -7 34 -18 62 -26 66 -8 3 -187 1 -398 -4 -276 -6 -388 -12 -399 -20 -10 -9 -24 -10 -49 -3 -18 6 -53 10 -76 10 -23 0 -45 5 -48 10 -6 10 -307 15 -316 5z m2021 -680 c-15 -64 -15 -65 -27 -37 -6 15 -14 44 -18 65 -7 37 -7 37 27 37 l34 0 -16 -65z"/>
<path d="M5418 2033 c-14 -16 -89 -204 -150 -377 l-25 -69 5 131 c5 147 1 178 -28 187 -16 5 -20 15 -20 46 0 79 0 79 -185 79 l-165 0 -6 -26 c-4 -15 -2 -174 5 -353 8 -232 8 -420 1 -651 -8 -273 -7 -327 4 -338 11 -11 52 -15 172 -16 l159 -1 27 50 c43 80 108 216 198 418 76 167 100 210 100 177 0 -19 250 -625 263 -636 7 -8 70 -14 165 -16 171 -5 176 -4 174 62 -1 21 2 41 6 44 7 4 10 1151 3 1151 -1 0 -4 25 -5 55 -1 31 -6 61 -10 68 -5 9 -56 12 -181 12 -168 0 -174 -1 -180 -21 -4 -12 -4 -134 0 -273 4 -138 5 -249 2 -246 -10 9 -132 317 -171 429 -20 58 -42 111 -48 118 -16 20 -92 17 -110 -4z"/>
<path d="M8122 2041 c-131 -7 -146 -16 -140 -88 3 -38 1 -42 -23 -47 -15 -3 -30 -13 -33 -23 -4 -9 -1 -143 5 -298 9 -211 10 -345 2 -544 -6 -145 -9 -270 -6 -277 2 -7 17 -15 32 -19 23 -5 27 -10 23 -34 -2 -17 3 -34 13 -44 15 -15 50 -17 311 -17 320 0 404 9 495 55 97 49 153 138 172 270 14 94 -1 161 -54 249 l-40 67 32 37 c59 67 83 135 87 248 6 149 -32 264 -117 351 -88 92 -171 114 -441 118 -113 1 -256 0 -318 -4z m401 -434 c23 -15 27 -25 27 -62 0 -56 -15 -65 -109 -65 -83 0 -91 8 -91 95 l0 57 73 -4 c48 -2 83 -9 100 -21z m-14 -471 c52 -55 3 -117 -99 -124 l-60 -4 0 70 c0 47 4 72 13 75 6 3 37 6 68 6 46 1 59 -3 78 -23z"/>
<path d="M6248 2028 c-31 -11 -37 -43 -17 -95 7 -19 7 -29 0 -31 -6 -2 -11 -16 -11 -32 0 -24 134 -408 233 -665 43 -113 156 -453 163 -491 3 -16 11 -40 17 -54 12 -25 12 -25 170 -27 l158 -1 18 36 c15 31 144 395 166 470 7 25 32 25 27 -1 -1 -8 14 -45 34 -81 28 -52 33 -66 20 -66 -12 0 -15 -7 -12 -22 21 -100 25 -135 20 -171 -4 -23 -10 -47 -15 -52 -4 -6 3 -33 17 -62 19 -41 22 -57 14 -78 -24 -63 2 -231 38 -243 13 -4 21 15 46 100 l17 58 64 0 c35 0 67 5 70 10 3 6 19 10 35 10 33 0 38 -15 43 -120 2 -48 5 -55 22 -55 15 0 28 17 52 65 35 73 39 105 19 154 -11 27 -11 39 -1 70 7 21 21 44 32 51 15 12 16 17 6 34 -7 12 -13 39 -13 61 0 22 -4 40 -9 40 -5 0 -12 38 -16 85 -5 63 -10 85 -21 85 -11 0 -14 19 -15 88 0 116 -10 167 -31 166 -13 -1 -18 12 -24 65 -8 80 -39 184 -59 201 -12 10 -18 10 -29 1 -12 -10 -18 -7 -30 17 -8 16 -38 55 -66 85 l-51 56 47 146 c67 209 67 209 -179 203 -105 -2 -140 -6 -151 -18 -9 -8 -22 -49 -31 -90 -9 -41 -20 -79 -26 -85 -13 -13 -307 -19 -340 -7 -21 8 -28 21 -38 68 -20 88 -39 121 -74 128 -47 10 -259 5 -289 -6z m612 -615 c0 -31 -54 -203 -61 -196 -4 5 -21 54 -37 111 l-30 102 64 0 c54 0 64 -3 64 -17z"/>
</g>
<g id="layer102" fill="#ec6203" stroke="none">
<path d="M2511 1988 c4 -24 8 -48 9 -55 0 -9 -82 -13 -333 -15 -277 -2 -337 -6 -352 -18 -16 -14 -17 -37 -14 -340 2 -179 2 -430 1 -558 -3 -173 0 -237 9 -248 9 -11 34 -14 107 -13 99 2 112 -3 112 -46 0 -41 -16 -45 -196 -45 -125 0 -174 3 -182 13 -7 8 -9 236 -7 680 2 367 0 667 -3 667 -4 -1 -59 -36 -122 -80 -131 -91 -351 -228 -455 -284 -38 -21 -130 -62 -204 -92 -173 -69 -256 -119 -355 -215 -123 -117 -184 -217 -235 -380 -14 -44 -15 -139 -1 -139 5 0 24 13 42 28 91 78 190 131 316 167 110 32 148 30 82 -4 -127 -65 -329 -250 -420 -385 -29 -44 -75 -126 -102 -182 -46 -99 -103 -273 -96 -293 1 -6 44 21 93 60 178 140 384 266 551 337 133 57 324 112 382 112 27 -1 27 -1 -13 -35 -34 -29 -90 -58 -180 -91 -57 -21 225 -33 300 -13 22 6 83 27 135 47 87 33 106 36 225 40 109 3 157 0 300 -24 276 -45 578 -36 815 25 143 37 144 39 34 40 -62 1 -104 5 -112 13 -18 18 -4 927 14 949 17 19 17 86 3 189 -6 41 -14 106 -18 145 -7 77 -12 82 -97 84 l-41 1 8 -42z"/>
<path d="M10297 1937 c-41 -33 -139 -217 -135 -255 3 -24 11 -29 78 -47 102 -29 134 -48 155 -91 16 -33 16 -39 1 -78 -9 -22 -41 -70 -72 -105 -80 -92 -101 -127 -120 -200 -40 -158 32 -295 201 -383 123 -64 245 -86 266 -48 37 68 104 228 101 242 -4 19 -19 24 -96 31 -65 6 -100 33 -104 81 -4 43 4 56 100 178 93 117 112 162 112 263 1 69 -4 89 -31 146 -51 110 -166 206 -304 254 -60 22 -132 27 -152 12z"/>
<path d="M5457 1918 c-16 -12 -75 -138 -162 -345 -22 -51 -41 -90 -43 -88 -3 3 -4 92 -3 199 1 165 -1 197 -15 210 -13 13 -43 16 -175 16 l-159 0 -6 -26 c-4 -14 -2 -145 4 -292 6 -166 7 -373 1 -547 -7 -243 -6 -282 7 -295 11 -12 49 -16 168 -19 153 -3 154 -3 169 20 9 13 68 141 132 284 64 143 123 266 129 273 10 10 39 -43 146 -268 73 -154 138 -284 144 -289 18 -14 314 -21 324 -7 11 14 10 1136 -1 1154 -6 9 -52 12 -171 12 -135 0 -166 -3 -176 -15 -10 -12 -12 -63 -7 -228 7 -211 7 -212 -12 -182 -11 17 -54 118 -96 225 -43 107 -82 201 -87 208 -6 6 -29 12 -52 12 -23 0 -50 -6 -59 -12z"/>
<path d="M8050 1920 c-96 -9 -116 -15 -125 -38 -3 -9 0 -142 6 -297 9 -211 10 -345 2 -544 -6 -145 -9 -270 -6 -277 9 -23 60 -26 374 -22 282 4 309 6 371 26 127 42 196 122 217 251 14 85 0 145 -50 217 l-40 57 34 36 c54 56 79 116 85 198 12 186 -91 326 -281 380 -61 17 -449 26 -587 13z m473 -313 c22 -14 27 -25 27 -61 0 -30 -6 -48 -19 -60 -23 -21 -121 -35 -193 -28 l-48 5 0 78 0 78 33 4 c71 10 173 2 200 -16z m-15 -470 c30 -28 26 -73 -8 -99 -33 -24 -85 -32 -154 -24 l-56 7 0 69 0 69 33 3 c75 8 162 -4 185 -25z"/>
<path d="M9291 1919 c-94 -18 -186 -81 -222 -151 -27 -54 -42 -184 -34 -305 4 -56 1 -235 -5 -397 -10 -238 -10 -299 0 -311 19 -22 331 -22 354 0 14 14 15 61 9 388 -7 413 -4 435 49 463 48 25 129 29 171 9 70 -33 71 -39 62 -465 -6 -327 -5 -377 8 -388 10 -8 72 -15 181 -19 153 -6 166 -5 172 12 4 9 3 220 -3 469 -9 425 -11 454 -31 506 -57 147 -195 201 -505 199 -89 -1 -182 -5 -206 -10z"/>
<path d="M2805 1913 c-49 -12 -48 -7 -44 -353 2 -179 2 -430 1 -558 -3 -170 0 -237 9 -248 9 -11 38 -14 127 -13 79 0 117 -3 122 -11 6 -9 13 -9 31 0 13 7 32 14 44 15 34 4 35 5 35 18 0 6 31 32 67 57 155 104 255 235 314 410 30 89 32 104 32 232 l0 137 26 3 26 3 0 135 c0 89 -5 143 -13 158 l-13 22 -372 -1 c-205 -1 -381 -4 -392 -6z"/>
<path d="M3662 1910 c-48 -21 -57 10 198 -690 96 -261 178 -481 183 -488 7 -9 49 -12 155 -11 135 2 147 3 167 24 26 26 321 767 421 1057 22 66 22 68 4 90 -18 22 -24 23 -179 23 -187 0 -184 1 -211 -96 l-17 -64 -94 -6 c-52 -4 -128 -4 -170 -2 l-75 6 -23 62 c-34 97 -39 100 -200 102 -75 2 -146 -2 -159 -7z m614 -507 c-4 -16 -19 -66 -33 -113 -23 -78 -26 -83 -36 -60 -6 14 -21 48 -33 75 -12 28 -26 67 -29 88 l-7 37 72 0 72 0 -6 -27z"/>
<path d="M6243 1908 c-16 -8 -23 -20 -23 -38 0 -24 135 -410 225 -645 15 -38 59 -162 97 -275 39 -113 75 -210 80 -217 7 -9 55 -12 164 -12 l155 0 19 32 c20 32 144 341 271 674 40 106 74 191 76 190 1 -2 -29 -99 -68 -216 l-70 -214 30 -31 c34 -35 38 -46 18 -46 -9 0 -3 -21 20 -66 36 -73 42 -99 18 -90 -13 5 -15 -1 -10 -32 12 -69 10 -67 79 -67 73 0 106 -20 106 -64 0 -18 8 -30 25 -38 23 -10 25 -9 25 16 0 14 7 36 15 48 19 27 78 47 116 39 27 -5 29 -4 29 28 0 46 -11 97 -20 91 -4 -2 -10 42 -13 98 -9 139 -15 169 -36 162 -15 -4 -19 9 -29 100 -12 109 -43 198 -57 163 -11 -28 -20 -22 -58 40 -19 31 -49 70 -67 87 -26 25 -33 27 -41 15 -9 -12 -10 -12 -5 3 3 10 6 23 6 28 0 6 5 7 12 3 7 -4 8 -3 4 5 -4 6 7 55 25 108 l32 97 -23 18 c-19 16 -42 18 -165 18 -79 0 -155 -4 -168 -9 -25 -10 -41 -40 -62 -116 l-11 -40 -94 -6 c-52 -4 -130 -4 -172 -2 l-77 6 -17 64 c-26 98 -37 103 -203 102 -76 0 -146 -5 -158 -11z m617 -495 c0 -27 -53 -203 -61 -203 -10 0 -79 207 -71 214 3 3 34 6 69 6 53 0 63 -3 63 -17z m636 -400 c27 -18 79 -91 70 -100 -2 -3 -17 13 -33 36 -31 44 -75 71 -104 64 -19 -5 -68 -56 -87 -90 -6 -10 -13 -15 -17 -11 -9 9 39 83 67 102 29 21 72 20 104 -1z m2 -76 c17 -34 8 -48 -13 -21 -10 14 -14 15 -15 5 0 -8 9 -25 21 -37 25 -27 18 -44 -19 -44 -69 0 -97 31 -47 50 14 5 25 14 25 20 0 14 -33 13 -48 -2 -20 -20 -13 1 10 33 29 38 67 37 86 -4z"/>
<path d="M7395 760 c-3 -5 -16 -10 -28 -10 -15 0 -18 -3 -10 -11 12 -12 53 4 53 21 0 13 -7 13 -15 0z"/>
<path d="M7610 743 c-24 -12 -24 -13 -3 -13 12 0 25 5 28 11 11 16 2 17 -25 2z"/>
<path d="M7430 705 c-11 -29 -22 -31 -55 -9 -23 15 -25 15 -25 0 0 -19 -11 -21 -28 -4 -18 18 -24 4 -12 -27 6 -15 8 -36 5 -46 -5 -14 2 -23 30 -36 19 -9 34 -22 31 -29 -10 -25 74 -32 98 -8 10 9 24 13 36 9 14 -4 20 -2 20 9 0 8 14 17 33 21 52 12 80 45 37 45 -24 0 -25 4 -4 36 21 31 12 41 -21 26 -14 -7 -35 -12 -47 -12 -17 0 -18 2 -8 15 7 8 8 15 2 15 -5 0 -15 -7 -22 -15 -18 -22 -29 -19 -36 10 -3 14 -10 25 -15 25 -5 0 -14 -11 -19 -25z"/>
<path d="M7260 694 c0 -11 7 -29 16 -40 15 -18 15 -18 9 11 -8 37 -25 57 -25 29z"/>
<path d="M7621 674 c-17 -38 -6 -42 14 -5 8 17 12 31 7 31 -5 0 -14 -12 -21 -26z"/>
<path d="M7562 430 c0 -19 2 -27 5 -17 2 9 2 25 0 35 -3 9 -5 1 -5 -18z"/>
</g>
<g id="layer103" fill="#ee9e1a" stroke="none">
<path d="M2511 1988 c4 -24 8 -49 9 -55 0 -10 -48 -13 -207 -13 -238 0 -456 -10 -474 -21 -9 -5 -12 -142 -14 -573 -2 -539 -1 -567 16 -576 11 -6 54 -7 105 -4 81 7 88 6 103 -15 15 -19 29 -22 141 -27 130 -6 415 17 433 35 5 5 11 200 14 432 5 346 9 428 20 446 13 19 13 40 3 140 -7 65 -16 149 -19 188 -7 77 -12 82 -97 84 l-41 1 8 -42z"/>
<path d="M10298 1937 c-42 -32 -140 -217 -136 -255 3 -24 11 -29 78 -47 102 -29 134 -48 155 -91 16 -33 16 -39 1 -78 -9 -22 -41 -70 -72 -105 -80 -92 -101 -127 -120 -200 -40 -158 32 -295 201 -383 73 -38 172 -68 224 -68 29 0 33 5 86 116 76 160 74 174 -23 174 -55 0 -107 28 -124 65 -16 35 5 76 93 186 93 117 121 180 121 272 0 100 -29 172 -99 247 -30 33 -81 76 -113 95 -102 62 -239 98 -272 72z"/>
<path d="M5464 1920 c-14 -6 -46 -69 -114 -226 -51 -121 -97 -223 -100 -227 -4 -5 -5 86 -3 201 4 185 3 211 -12 225 -14 14 -40 17 -169 17 -122 0 -156 -3 -166 -14 -9 -12 -9 -79 0 -303 9 -208 9 -363 2 -558 -8 -203 -7 -273 1 -282 8 -8 68 -15 168 -19 l157 -7 15 24 c8 13 68 141 132 284 64 143 123 266 130 274 11 12 21 -1 58 -80 24 -52 84 -177 132 -279 48 -102 92 -190 98 -197 13 -13 305 -21 324 -10 12 8 12 1136 0 1155 -6 9 -52 12 -172 12 -156 0 -165 -1 -175 -21 -8 -14 -9 -85 -5 -232 l7 -212 -21 36 c-11 20 -54 124 -96 230 -42 107 -84 200 -93 207 -18 14 -66 15 -98 2z"/>
<path d="M8195 1920 c-126 -3 -238 -9 -247 -14 -9 -4 -19 -15 -23 -24 -3 -9 0 -142 6 -297 9 -211 10 -345 2 -544 -6 -145 -9 -270 -6 -277 9 -23 63 -26 370 -22 267 4 305 7 360 25 127 42 188 98 219 199 32 105 10 216 -59 298 l-24 29 33 29 c72 63 107 191 84 303 -39 188 -175 285 -415 297 -38 2 -173 1 -300 -2z m315 -308 c33 -16 35 -20 35 -66 0 -42 -4 -52 -27 -69 -23 -17 -43 -21 -125 -21 l-98 -1 -3 79 c-2 57 1 82 10 87 25 16 171 10 208 -9z m-3 -473 c32 -31 28 -75 -10 -103 -23 -17 -46 -22 -116 -24 l-88 -4 -6 61 c-9 105 -10 105 101 98 80 -5 98 -9 119 -28z"/>
<path d="M9291 1915 c-111 -25 -184 -74 -222 -148 -27 -53 -42 -183 -34 -304 4 -56 1 -235 -5 -397 -11 -249 -11 -298 1 -312 12 -14 34 -16 178 -12 204 6 195 -2 187 153 -11 197 -9 638 2 667 16 39 53 59 120 65 76 7 124 -14 148 -64 15 -33 16 -69 9 -413 -6 -324 -5 -378 8 -388 23 -19 321 -29 343 -11 15 12 16 49 9 429 -7 418 -16 524 -48 587 -32 61 -107 110 -214 139 -83 23 -395 29 -482 9z"/>
<path d="M2873 1911 c-50 -3 -95 -9 -99 -13 -4 -4 -8 -262 -9 -573 -2 -512 -1 -566 14 -573 13 -6 282 -9 339 -3 6 0 12 8 12 16 0 8 4 15 8 15 4 0 4 33 -2 74 l-9 75 84 89 c154 164 215 306 206 485 l-5 97 59 0 c40 0 59 -4 59 -12 0 -10 2 -10 8 -2 4 7 18 14 32 15 l25 4 0 130 c0 108 -3 136 -18 158 l-17 27 -298 -2 c-163 -1 -338 -4 -389 -7z"/>
<path d="M3674 1910 c-18 -6 -34 -17 -37 -24 -3 -8 11 -66 32 -128 81 -238 373 -1023 383 -1029 6 -4 76 -6 156 -5 136 3 146 4 163 25 24 30 330 806 415 1053 22 64 22 68 5 89 -15 19 -30 22 -133 27 -124 5 -195 -2 -222 -21 -9 -7 -24 -41 -34 -77 -14 -53 -21 -65 -42 -71 -31 -9 -267 -11 -297 -3 -16 5 -27 22 -43 69 -32 96 -39 100 -189 102 -69 1 -140 -2 -157 -7z m602 -512 c-9 -47 -57 -201 -60 -197 -10 11 -66 163 -72 193 l-6 36 72 0 73 0 -7 -32z"/>
<path d="M6253 1909 c-27 -8 -33 -15 -33 -39 0 -15 50 -165 111 -332 61 -167 133 -366 161 -443 110 -310 130 -360 140 -366 14 -9 300 -5 315 4 18 11 353 868 423 1080 31 96 26 100 -129 105 -120 4 -194 -1 -219 -17 -7 -4 -23 -39 -36 -77 -18 -54 -29 -70 -47 -75 -30 -9 -267 -11 -296 -3 -18 5 -27 21 -43 74 -11 37 -28 74 -37 81 -20 17 -261 23 -310 8z m607 -496 c0 -24 -50 -196 -60 -206 -6 -7 -80 191 -80 216 0 4 32 7 70 7 60 0 70 -3 70 -17z"/>
<path d="M1611 1718 c-102 -90 -195 -128 -526 -213 -168 -44 -233 -67 -314 -112 -79 -44 -178 -136 -232 -215 -61 -90 -60 -93 22 -53 97 47 291 109 404 130 50 10 140 19 200 22 100 4 114 2 155 -19 80 -41 76 -104 -8 -147 -21 -11 -115 -43 -208 -71 -284 -86 -437 -176 -563 -332 -48 -60 -119 -178 -106 -178 3 0 48 22 98 50 118 63 453 189 627 234 166 44 351 76 435 76 l62 0 7 198 c8 258 7 660 -2 666 -4 2 -27 -14 -51 -36z"/>
<path d="M7245 1419 l-76 -232 30 -31 c34 -35 38 -46 18 -46 -9 0 -3 -21 20 -66 36 -73 42 -99 18 -90 -13 5 -15 -1 -10 -32 12 -69 10 -67 79 -67 73 0 106 -20 106 -64 0 -18 8 -30 25 -38 23 -10 25 -9 25 16 0 14 7 36 15 48 19 27 78 47 116 39 27 -5 29 -4 29 28 0 46 -11 97 -20 91 -4 -2 -10 42 -13 98 -9 139 -15 169 -36 162 -15 -4 -19 9 -29 100 -12 109 -43 198 -57 163 -11 -28 -21 -22 -50 28 -30 50 -92 124 -106 124 -4 0 -42 -104 -84 -231z m251 -406 c27 -18 79 -91 70 -100 -2 -3 -17 13 -33 36 -31 44 -75 71 -104 64 -19 -5 -68 -56 -87 -90 -6 -10 -13 -15 -17 -11 -9 9 39 83 67 102 29 21 72 20 104 -1z m2 -76 c17 -34 8 -48 -13 -21 -10 14 -14 15 -15 5 0 -8 9 -25 21 -37 25 -27 18 -44 -19 -44 -69 0 -97 31 -47 50 14 5 25 14 25 20 0 14 -33 13 -48 -2 -20 -20 -13 1 10 33 29 38 67 37 86 -4z"/>
<path d="M1585 843 c-103 -23 -192 -78 -247 -151 -36 -47 -62 -92 -55 -92 3 0 56 24 118 54 96 45 151 66 247 92 7 2 12 22 12 54 0 48 -1 50 -27 49 -16 -1 -37 -3 -48 -6z"/>
<path d="M7383 756 c-13 -6 -23 -14 -23 -19 0 -9 36 9 45 23 3 6 5 9 3 9 -2 -1 -13 -6 -25 -13z"/>
<path d="M7430 705 c-11 -29 -22 -31 -55 -9 -23 15 -25 15 -25 0 0 -19 -11 -21 -28 -4 -18 18 -24 4 -12 -27 6 -15 8 -36 5 -46 -5 -14 2 -23 30 -36 19 -9 34 -22 31 -29 -10 -25 74 -32 98 -8 10 9 24 13 36 9 14 -4 20 -2 20 9 0 8 14 17 33 21 52 12 80 45 37 45 -24 0 -25 4 -4 36 21 31 12 41 -21 26 -40 -18 -66 -16 -58 6 6 15 4 15 -16 -3 -19 -16 -24 -17 -31 -5 -6 8 -10 21 -10 28 0 21 -20 13 -30 -13z"/>
<path d="M1598 613 c23 -2 61 -2 85 0 23 2 4 4 -43 4 -47 0 -66 -2 -42 -4z"/>
<path d="M7265 583 c-4 -16 -8 -37 -10 -48 -6 -26 26 -148 35 -138 9 9 42 117 46 149 1 14 -8 29 -26 43 -37 27 -38 27 -45 -6z"/>
<path d="M7603 577 c-31 -14 -35 -31 -23 -99 6 -32 8 -69 4 -81 -12 -42 21 4 45 62 16 37 21 64 16 87 -7 40 -13 45 -42 31z"/>
</g>
<g id="layer104" fill="#f4e409" stroke="none">
<path d="M2512 1979 c5 -30 10 -55 11 -55 1 -1 28 -4 60 -6 l57 -5 0 48 c0 26 -5 51 -11 54 -6 4 -37 9 -69 12 l-58 6 10 -54z"/>
<path d="M3120 1394 l1 -229 44 50 c97 110 151 234 143 331 -3 30 -7 56 -9 58 -2 3 -44 8 -92 12 l-87 7 0 -229z"/>
<path d="M2392 1573 c-25 -41 -102 -103 -169 -136 -34 -17 -42 -26 -45 -53 -3 -21 1 -35 9 -38 32 -13 286 -26 366 -20 l87 7 0 133 0 134 -84 0 c-46 0 -96 2 -112 5 -25 5 -32 1 -52 -32z"/>
<path d="M1582 1534 c-81 -40 -290 -114 -324 -114 -9 0 -20 -5 -24 -12 -13 -21 411 4 433 26 2 2 3 35 1 73 l-3 69 -83 -42z"/>
<path d="M2567 1264 c-65 -51 -85 -80 -124 -178 -33 -82 -75 -128 -144 -152 -44 -16 -47 -19 -28 -26 42 -16 194 -19 274 -6 77 13 80 14 86 43 9 43 10 365 2 365 -5 0 -34 -20 -66 -46z"/>
</g>
<g id="layer105" fill="#f3ebae" stroke="none">
<path d="M7245 1419 l-76 -232 30 -31 c35 -36 38 -46 16 -46 -12 0 -10 -8 9 -39 23 -35 56 -106 56 -118 0 -3 -9 -3 -20 0 -11 3 -20 4 -20 2 0 -2 5 -26 10 -53 l11 -48 59 4 c55 4 61 2 90 -26 16 -17 30 -39 30 -50 0 -11 7 -23 16 -26 23 -9 24 -8 24 17 0 52 68 96 131 83 28 -5 29 -4 28 32 -2 55 -13 98 -24 92 -6 -3 -11 23 -13 65 -1 39 -5 98 -8 133 -5 54 -8 62 -23 57 -16 -5 -19 4 -25 67 -7 77 -26 163 -44 194 -10 18 -11 18 -20 -5 -9 -24 -10 -23 -44 30 -40 62 -96 129 -108 129 -5 0 -43 -104 -85 -231z m253 -405 c28 -19 76 -93 67 -102 -4 -4 -11 1 -17 11 -5 10 -23 34 -40 53 -52 59 -109 42 -164 -52 -7 -10 -15 -16 -19 -12 -10 9 30 73 62 98 31 24 80 26 111 4z m-10 -57 c6 -6 13 -26 17 -42 l7 -30 -21 25 c-13 16 -21 20 -21 11 0 -8 9 -25 21 -37 27 -28 17 -44 -26 -44 -69 0 -85 24 -38 56 30 19 16 32 -16 14 -27 -14 -26 -6 1 30 23 31 58 39 76 17z"/>
<path d="M7610 743 c-14 -7 -18 -13 -10 -13 17 0 47 17 40 23 -3 2 -16 -2 -30 -10z"/>
<path d="M7428 698 c-14 -20 -18 -21 -43 -10 -21 10 -30 10 -35 1 -6 -8 -13 -8 -30 1 -20 11 -21 10 -14 -12 5 -12 8 -35 8 -49 -1 -21 7 -30 32 -43 19 -8 34 -22 34 -31 0 -11 11 -15 44 -15 25 0 48 5 52 11 3 6 17 9 30 6 15 -3 24 0 24 9 0 7 15 16 33 19 52 12 80 45 37 45 -24 0 -24 0 -5 36 16 32 7 41 -24 25 -25 -14 -64 -14 -56 -1 3 6 2 10 -4 10 -5 0 -13 -4 -16 -10 -10 -16 -23 -12 -30 10 -8 26 -19 25 -37 -2z"/>
<path d="M7260 687 c0 -15 29 -57 30 -42 0 6 -3 20 -6 33 -7 24 -24 31 -24 9z"/>
<path d="M7272 598 c-7 -7 -12 -32 -12 -57 1 -56 25 -162 33 -141 49 141 51 160 17 187 -20 17 -30 19 -38 11z"/>
<path d="M7603 577 c-30 -13 -34 -28 -22 -93 6 -31 8 -67 5 -80 -11 -44 5 -24 35 43 22 50 29 76 24 100 -7 39 -13 44 -42 30z"/>
</g>


</svg>